<svg width="629" height="516" viewBox="0 0 629 516" fill="none" xmlns="http://www.w3.org/2000/svg">
<path d="M519.343 34.5C562.942 8.1 615.947 0.5 637 0V517H83.3484C81.8204 507.833 99.6473 470.5 105.25 464.5C110.853 458.5 129.561 422.055 271.295 406.5C409.148 391.371 412.977 298.462 425.624 244C438.272 189.538 464.843 67.5 519.343 34.5Z" fill="white"/>
<path d="M502.078 44.3665C552.075 18.0687 612.858 10.4981 637 10V525H2.10609C0.353856 515.869 20.7966 478.68 27.2215 472.703C33.6463 466.726 55.1 430.422 217.631 414.927C375.714 399.857 380.104 307.307 394.607 253.056C409.111 198.805 439.581 77.2389 502.078 44.3665Z" stroke="white" stroke-width="3"/>
<g filter="url(#filter0_b_311_27)">
<path d="M524.319 81.1634C563.101 57.3166 610.248 50.4516 628.975 50V517H101.814C78.2401 517 107.332 480 133.915 460.5C160.499 441 177.611 427.051 303.682 413C426.302 399.334 429.708 319.597 440.957 270.402C452.207 221.208 475.843 110.972 524.319 81.1634Z" fill="#A3B6D4"/>
</g>
<g filter="url(#filter1_b_311_27)">
<path d="M533.165 117.561C568.669 95.7056 611.831 89.4139 628.975 89V517H146.373C124.792 517 151.424 483.09 175.761 465.218C200.098 447.347 215.764 434.562 331.178 421.685C443.433 409.161 446.551 336.082 456.85 290.996C467.149 245.91 488.786 144.88 533.165 117.561Z" fill="url(#paint0_linear_311_27)"/>
</g>
<g filter="url(#filter2_b_311_27)">
<path d="M550.015 187.556C579.275 169.531 614.846 164.341 628.975 164V517H231.248C213.462 517 235.411 489.032 255.467 474.292C275.524 459.552 288.435 449.008 383.551 438.388C476.064 428.058 478.634 367.785 487.121 330.6C495.609 293.414 513.441 210.088 550.015 187.556Z" fill="url(#paint1_linear_311_27)"/>
</g>
<g filter="url(#filter3_b_311_27)">
<path d="M572.939 282.75C593.704 269.932 618.948 266.243 628.975 266V517H346.717C334.095 517 349.671 497.113 363.905 486.633C378.139 476.152 387.301 468.655 454.803 461.103C520.458 453.758 522.281 410.901 528.305 384.46C534.328 358.02 546.983 298.771 572.939 282.75Z" fill="url(#paint2_linear_311_27)"/>
</g>
<defs>
<filter id="filter0_b_311_27" x="89.1372" y="46" width="543.837" height="475" filterUnits="userSpaceOnUse" color-interpolation-filters="sRGB">
<feFlood flood-opacity="0" result="BackgroundImageFix"/>
<feGaussianBlur in="BackgroundImageFix" stdDeviation="2"/>
<feComposite in2="SourceAlpha" operator="in" result="effect1_backgroundBlur_311_27"/>
<feBlend mode="normal" in="SourceGraphic" in2="effect1_backgroundBlur_311_27" result="shape"/>
</filter>
<filter id="filter1_b_311_27" x="134.43" y="85" width="498.545" height="436" filterUnits="userSpaceOnUse" color-interpolation-filters="sRGB">
<feFlood flood-opacity="0" result="BackgroundImageFix"/>
<feGaussianBlur in="BackgroundImageFix" stdDeviation="2"/>
<feComposite in2="SourceAlpha" operator="in" result="effect1_backgroundBlur_311_27"/>
<feBlend mode="normal" in="SourceGraphic" in2="effect1_backgroundBlur_311_27" result="shape"/>
</filter>
<filter id="filter2_b_311_27" x="220.701" y="160" width="412.273" height="361" filterUnits="userSpaceOnUse" color-interpolation-filters="sRGB">
<feFlood flood-opacity="0" result="BackgroundImageFix"/>
<feGaussianBlur in="BackgroundImageFix" stdDeviation="2"/>
<feComposite in2="SourceAlpha" operator="in" result="effect1_backgroundBlur_311_27"/>
<feBlend mode="normal" in="SourceGraphic" in2="effect1_backgroundBlur_311_27" result="shape"/>
</filter>
<filter id="filter3_b_311_27" x="338.071" y="262" width="294.904" height="259" filterUnits="userSpaceOnUse" color-interpolation-filters="sRGB">
<feFlood flood-opacity="0" result="BackgroundImageFix"/>
<feGaussianBlur in="BackgroundImageFix" stdDeviation="2"/>
<feComposite in2="SourceAlpha" operator="in" result="effect1_backgroundBlur_311_27"/>
<feBlend mode="normal" in="SourceGraphic" in2="effect1_backgroundBlur_311_27" result="shape"/>
</filter>
<linearGradient id="paint0_linear_311_27" x1="464.958" y1="369.5" x2="314.65" y2="138.566" gradientUnits="userSpaceOnUse">
<stop stop-color="#7B98C4"/>
<stop offset="1" stop-color="#7B98C4" stop-opacity="0"/>
<stop offset="1" stop-color="#A3B6D4"/>
</linearGradient>
<linearGradient id="paint1_linear_311_27" x1="526.652" y1="419" x2="364.49" y2="302.015" gradientUnits="userSpaceOnUse">
<stop offset="0.0034464" stop-color="#41699F"/>
<stop offset="1" stop-color="#7B98C4"/>
</linearGradient>
<linearGradient id="paint2_linear_311_27" x1="612.924" y1="492" x2="471.882" y2="363.557" gradientUnits="userSpaceOnUse">
<stop stop-color="#113361"/>
<stop offset="1" stop-color="#41699F"/>
</linearGradient>
</defs>
</svg>
